<svg xmlns="http://www.w3.org/2000/svg" viewBox="0 0 1151.6750000000002 2097" width="1151.6750000000002" height="2097" style="--bg:#0d1117;--fg:#e6edf3;--line:#3d444d;--accent:#4493f8;--muted:#9198a1;background:var(--bg)">
<style>
  @import url('https://fonts.googleapis.com/css2?family=Inter:wght@400;500;600;700&amp;display=swap');
  text { font-family: 'Inter', system-ui, sans-serif; }
  svg {
    /* Derived from --bg and --fg (overridable via --line, --accent, etc.) */
    --_text:          var(--fg);
    --_text-sec:      var(--muted, color-mix(in srgb, var(--fg) 60%, var(--bg)));
    --_text-muted:    var(--muted, color-mix(in srgb, var(--fg) 40%, var(--bg)));
    --_text-faint:    color-mix(in srgb, var(--fg) 25%, var(--bg));
    --_line:          var(--line, color-mix(in srgb, var(--fg) 30%, var(--bg)));
    --_arrow:         var(--accent, color-mix(in srgb, var(--fg) 50%, var(--bg)));
    --_node-fill:     var(--surface, color-mix(in srgb, var(--fg) 3%, var(--bg)));
    --_node-stroke:   var(--border, color-mix(in srgb, var(--fg) 20%, var(--bg)));
    --_group-fill:    var(--bg);
    --_group-hdr:     color-mix(in srgb, var(--fg) 5%, var(--bg));
    --_inner-stroke:  color-mix(in srgb, var(--fg) 12%, var(--bg));
    --_key-badge:     color-mix(in srgb, var(--fg) 10%, var(--bg));
  }
</style>
<defs>
  <marker id="arrowhead" markerWidth="8" markerHeight="4.8" refX="8" refY="2.4" orient="auto">
    <polygon points="0 0, 8 2.4, 0 4.8" fill="var(--_arrow)" />
  </marker>
  <marker id="arrowhead-start" markerWidth="8" markerHeight="4.8" refX="0" refY="2.4" orient="auto-start-reverse">
    <polygon points="8 0, 0 2.4, 8 4.8" fill="var(--_arrow)" />
  </marker>
</defs>
<rect x="40" y="40" width="694.45" height="123" rx="0" ry="0" fill="var(--_group-fill)" stroke="var(--_node-stroke)" stroke-width="1" />
<rect x="40" y="40" width="694.45" height="28" rx="0" ry="0" fill="var(--_group-hdr)" stroke="var(--_node-stroke)" stroke-width="1" />
<text x="52" y="54" dy="0.35em" font-size="12" font-weight="600" fill="var(--_text-sec)">&quot;News Sources (Parallel)&quot;</text>
<rect x="754.45" y="40" width="226.82499999999993" height="446" rx="0" ry="0" fill="var(--_group-fill)" stroke="var(--_node-stroke)" stroke-width="1" />
<rect x="754.45" y="40" width="226.82499999999993" height="28" rx="0" ry="0" fill="var(--_group-hdr)" stroke="var(--_node-stroke)" stroke-width="1" />
<text x="766.45" y="54" dy="0.35em" font-size="12" font-weight="600" fill="var(--_text-sec)">&quot;Crawlee Pipeline&quot;</text>
<rect x="775.9000000000001" y="530" width="161.80000000000007" height="268" rx="0" ry="0" fill="var(--_group-fill)" stroke="var(--_node-stroke)" stroke-width="1" />
<rect x="775.9000000000001" y="530" width="161.80000000000007" height="28" rx="0" ry="0" fill="var(--_group-hdr)" stroke="var(--_node-stroke)" stroke-width="1" />
<text x="787.9000000000001" y="544" dy="0.35em" font-size="12" font-weight="600" fill="var(--_text-sec)">&quot;LLM-Assisted Extraction&quot;</text>
<rect x="758.025" y="842" width="353.6500000000001" height="435" rx="0" ry="0" fill="var(--_group-fill)" stroke="var(--_node-stroke)" stroke-width="1" />
<rect x="758.025" y="842" width="353.6500000000001" height="28" rx="0" ry="0" fill="var(--_group-hdr)" stroke="var(--_node-stroke)" stroke-width="1" />
<text x="770.025" y="856" dy="0.35em" font-size="12" font-weight="600" fill="var(--_text-sec)">&quot;Processing Pipeline&quot;</text>
<rect x="827.1375" y="1321" width="226.14999999999998" height="736" rx="0" ry="0" fill="var(--_group-fill)" stroke="var(--_node-stroke)" stroke-width="1" />
<rect x="827.1375" y="1321" width="226.14999999999998" height="28" rx="0" ry="0" fill="var(--_group-hdr)" stroke="var(--_node-stroke)" stroke-width="1" />
<text x="839.1375" y="1335" dy="0.35em" font-size="12" font-weight="600" fill="var(--_text-sec)">&quot;Staging Output&quot;</text>
<polyline points="856.8000000000001,263 856.8000000000001,243 929.0375,243 929.0375,119.5 959.2750000000001,119.5" fill="none" stroke="var(--_line)" stroke-width="0.75" marker-end="url(#arrowhead)" />
<polyline points="896.8000000000001,143 896.8000000000001,163 886.8000000000001,163 886.8000000000001,281 933.575,281" fill="none" stroke="var(--_line)" stroke-width="0.75" marker-end="url(#arrowhead)" />
<polyline points="856.8000000000001,299 856.8000000000001,419" fill="none" stroke="var(--_line)" stroke-width="0.75" marker-end="url(#arrowhead)" />
<polyline points="856.8000000000001,622 856.8000000000001,742" fill="none" stroke="var(--_line)" stroke-width="0.75" marker-end="url(#arrowhead)" />
<polyline points="856.8000000000001,778 856.8000000000001,903.5" fill="none" stroke="var(--_line)" stroke-width="0.75" marker-end="url(#arrowhead)" />
<polyline points="856.8000000000001,939.5 856.8000000000001,1083 877.7375,1083" fill="none" stroke="var(--_line)" stroke-width="0.75" marker-end="url(#arrowhead)" />
<polyline points="1023.6250000000001,945 1023.6250000000001,1083 1002.6875,1083" fill="none" stroke="var(--_line)" stroke-width="0.75" marker-end="url(#arrowhead)" />
<polyline points="940.2125,1101 940.2125,1221" fill="none" stroke="var(--_line)" stroke-width="0.75" marker-end="url(#arrowhead)" />
<polyline points="940.2125,1257 940.2125,1377" fill="none" stroke="var(--_line)" stroke-width="0.75" marker-end="url(#arrowhead)" />
<polyline points="940.2125,1413 940.2125,1533" fill="none" stroke="var(--_line)" stroke-width="0.75" marker-end="url(#arrowhead)" />
<polyline points="940.2125,1569 940.2125,1689" fill="none" stroke="var(--_line)" stroke-width="0.75" marker-end="url(#arrowhead)" />
<polyline points="940.2125,1725 940.2125,1845" fill="none" stroke="var(--_line)" stroke-width="0.75" marker-end="url(#arrowhead)" />
<polyline points="940.2125,1881 940.2125,2001" fill="none" stroke="var(--_line)" stroke-width="0.75" marker-end="url(#arrowhead)" />
<polyline points="138.77499999999998,137.5 138.77499999999998,183 795.6250000000001,183 795.6250000000001,281 780.0250000000001,281" fill="none" stroke="var(--_line)" stroke-width="0.75" marker-end="url(#arrowhead)" />
<polyline points="305.6,137.5 305.6,183 815.6250000000001,183 815.6250000000001,281 780.0250000000001,281" fill="none" stroke="var(--_line)" stroke-width="0.75" marker-end="url(#arrowhead)" />
<polyline points="468.85,137.5 468.85,183 835.6250000000001,183 835.6250000000001,281 780.0250000000001,281" fill="none" stroke="var(--_line)" stroke-width="0.75" marker-end="url(#arrowhead)" />
<polyline points="639.25,137.5 639.25,183 866.8000000000001,183 866.8000000000001,281 933.575,281" fill="none" stroke="var(--_line)" stroke-width="0.75" marker-end="url(#arrowhead)" />
<polyline points="856.8000000000001,466 856.8000000000001,586" fill="none" stroke="var(--_line)" stroke-width="0.75" marker-end="url(#arrowhead)" />
<rect x="61.99999999999997" y="101.5" width="153.55" height="36" rx="0" ry="0" fill="var(--_node-fill)" stroke="var(--_node-stroke)" stroke-width="0.75" />
<rect x="239.55" y="101.5" width="132.10000000000002" height="36" rx="0" ry="0" fill="var(--_node-fill)" stroke="var(--_node-stroke)" stroke-width="0.75" />
<rect x="395.65000000000003" y="101.5" width="146.4" height="36" rx="0" ry="0" fill="var(--_node-fill)" stroke="var(--_node-stroke)" stroke-width="0.75" />
<rect x="566.05" y="101.5" width="146.4" height="36" rx="0" ry="0" fill="var(--_node-fill)" stroke="var(--_node-stroke)" stroke-width="0.75" />
<rect x="780.0250000000001" y="263" width="153.55" height="36" rx="0" ry="0" fill="#3b82f6" stroke="var(--_node-stroke)" stroke-width="0.75" />
<rect x="834.325" y="103" width="124.95" height="33" fill="var(--_node-fill)" stroke="none" />
<line x1="834.325" y1="103" x2="834.325" y2="136" stroke="var(--_node-stroke)" stroke-width="0.75" />
<line x1="959.2750000000001" y1="103" x2="959.2750000000001" y2="136" stroke="var(--_node-stroke)" stroke-width="0.75" />
<ellipse cx="896.8000000000001" cy="136" rx="62.475" ry="7" fill="var(--_node-fill)" stroke="var(--_node-stroke)" stroke-width="0.75" />
<ellipse cx="896.8000000000001" cy="103" rx="62.475" ry="7" fill="var(--_node-fill)" stroke="var(--_node-stroke)" stroke-width="0.75" />
<rect x="776.45" y="426" width="160.70000000000002" height="33" fill="var(--_node-fill)" stroke="none" />
<line x1="776.45" y1="426" x2="776.45" y2="459" stroke="var(--_node-stroke)" stroke-width="0.75" />
<line x1="937.1500000000001" y1="426" x2="937.1500000000001" y2="459" stroke="var(--_node-stroke)" stroke-width="0.75" />
<ellipse cx="856.8000000000001" cy="459" rx="80.35000000000001" ry="7" fill="var(--_node-fill)" stroke="var(--_node-stroke)" stroke-width="0.75" />
<ellipse cx="856.8000000000001" cy="426" rx="80.35000000000001" ry="7" fill="var(--_node-fill)" stroke="var(--_node-stroke)" stroke-width="0.75" />
<rect x="797.9000000000001" y="586" width="117.80000000000001" height="36" rx="0" ry="0" fill="var(--_node-fill)" stroke="var(--_node-stroke)" stroke-width="0.75" />
<rect x="805.0500000000001" y="742" width="103.5" height="36" rx="0" ry="0" fill="#8b5cf6" stroke="var(--_node-stroke)" stroke-width="0.75" />
<rect x="780.0250000000001" y="903.5" width="153.55" height="36" rx="0" ry="0" fill="var(--_node-fill)" stroke="var(--_node-stroke)" stroke-width="0.75" />
<rect x="877.7375" y="1065" width="124.95" height="36" rx="0" ry="0" fill="var(--_node-fill)" stroke="var(--_node-stroke)" stroke-width="0.75" />
<rect x="957.575" y="905" width="132.10000000000002" height="33" fill="var(--_node-fill)" stroke="none" />
<line x1="957.575" y1="905" x2="957.575" y2="938" stroke="var(--_node-stroke)" stroke-width="0.75" />
<line x1="1089.6750000000002" y1="905" x2="1089.6750000000002" y2="938" stroke="var(--_node-stroke)" stroke-width="0.75" />
<ellipse cx="1023.625" cy="938" rx="66.05000000000001" ry="7" fill="var(--_node-fill)" stroke="var(--_node-stroke)" stroke-width="0.75" />
<ellipse cx="1023.625" cy="905" rx="66.05000000000001" ry="7" fill="var(--_node-fill)" stroke="var(--_node-stroke)" stroke-width="0.75" />
<rect x="877.7375" y="1221" width="124.95" height="36" rx="0" ry="0" fill="var(--_node-fill)" stroke="var(--_node-stroke)" stroke-width="0.75" />
<rect x="867.0124999999999" y="1377" width="146.4" height="36" rx="0" ry="0" fill="var(--_node-fill)" stroke="var(--_node-stroke)" stroke-width="0.75" />
<rect x="849.1374999999999" y="1533" width="182.15" height="36" rx="0" ry="0" fill="var(--_node-fill)" stroke="var(--_node-stroke)" stroke-width="0.75" />
<rect x="877.7375" y="1689" width="124.95" height="36" rx="0" ry="0" fill="#f59e0b" stroke="var(--_node-stroke)" stroke-width="0.75" />
<rect x="881.3125" y="1845" width="117.80000000000001" height="36" rx="0" ry="0" fill="var(--_node-fill)" stroke="var(--_node-stroke)" stroke-width="0.75" />
<rect x="874.1624999999999" y="2001" width="132.10000000000002" height="36" rx="0" ry="0" fill="#10b981" stroke="var(--_node-stroke)" stroke-width="0.75" />
<text x="138.77499999999998" y="119.5" text-anchor="middle" dy="0.35em" font-size="13" font-weight="500" fill="var(--_text)">The Hindu Archive</text>
<text x="305.6" y="119.5" text-anchor="middle" dy="0.35em" font-size="13" font-weight="500" fill="var(--_text)">Indian Express</text>
<text x="468.85" y="119.5" text-anchor="middle" dy="0.35em" font-size="13" font-weight="500" fill="var(--_text)">Deccan Chronicle</text>
<text x="639.25" y="119.5" text-anchor="middle" dy="0.35em" font-size="13" font-weight="500" fill="var(--_text)">Other Sources...</text>
<text x="856.8000000000001" y="281" text-anchor="middle" dy="0.35em" font-size="13" font-weight="500" fill="var(--_text)">PlaywrightCrawler</text>
<text x="896.8000000000001" y="119.5" text-anchor="middle" dy="0.35em" font-size="13" font-weight="500" fill="var(--_text)">Request Queue</text>
<text x="856.8000000000001" y="442.5" text-anchor="middle" dy="0.35em" font-size="13" font-weight="500" fill="var(--_text)">Persistent Storage</text>
<text x="856.8000000000001" y="604" text-anchor="middle" dy="0.35em" font-size="13" font-weight="500" fill="var(--_text)">Article HTML</text>
<text x="856.8000000000001" y="760" text-anchor="middle" dy="0.35em" font-size="13" font-weight="500" fill="var(--_text)">LLM Parser</text>
<text x="856.8000000000001" y="921.5" text-anchor="middle" dy="0.35em" font-size="13" font-weight="500" fill="var(--_text)">Raw Incident Data</text>
<text x="940.2125" y="1083" text-anchor="middle" dy="0.35em" font-size="13" font-weight="500" fill="var(--_text)">Fuzzy Matcher</text>
<text x="1023.625" y="921.5" text-anchor="middle" dy="0.35em" font-size="13" font-weight="500" fill="var(--_text)">governors.json</text>
<text x="940.2125" y="1239" text-anchor="middle" dy="0.35em" font-size="13" font-weight="500" fill="var(--_text)">Deduplication</text>
<text x="940.2125" y="1395" text-anchor="middle" dy="0.35em" font-size="13" font-weight="500" fill="var(--_text)">Schema Validator</text>
<text x="940.2125" y="1551" text-anchor="middle" dy="0.35em" font-size="13" font-weight="500" fill="var(--_text)">incidents_staged.json</text>
<text x="940.2125" y="1707" text-anchor="middle" dy="0.35em" font-size="13" font-weight="500" fill="var(--_text)">Manual Review</text>
<text x="940.2125" y="1863" text-anchor="middle" dy="0.35em" font-size="13" font-weight="500" fill="var(--_text)">Merge Script</text>
<text x="940.2124999999999" y="2019" text-anchor="middle" dy="0.35em" font-size="13" font-weight="500" fill="var(--_text)">incidents.json</text>
</svg>