<svg xmlns="http://www.w3.org/2000/svg" viewBox="0 0 2377.4 2448" width="2377.4" height="2448" style="--bg:#0d1117;--fg:#e6edf3;--line:#3d444d;--accent:#4493f8;--muted:#9198a1;background:var(--bg)">
<style>
  @import url('https://fonts.googleapis.com/css2?family=Inter:wght@400;500;600;700&amp;display=swap');
  text { font-family: 'Inter', system-ui, sans-serif; }
  svg {
    /* Derived from --bg and --fg (overridable via --line, --accent, etc.) */
    --_text:          var(--fg);
    --_text-sec:      var(--muted, color-mix(in srgb, var(--fg) 60%, var(--bg)));
    --_text-muted:    var(--muted, color-mix(in srgb, var(--fg) 40%, var(--bg)));
    --_text-faint:    color-mix(in srgb, var(--fg) 25%, var(--bg));
    --_line:          var(--line, color-mix(in srgb, var(--fg) 30%, var(--bg)));
    --_arrow:         var(--accent, color-mix(in srgb, var(--fg) 50%, var(--bg)));
    --_node-fill:     var(--surface, color-mix(in srgb, var(--fg) 3%, var(--bg)));
    --_node-stroke:   var(--border, color-mix(in srgb, var(--fg) 20%, var(--bg)));
    --_group-fill:    var(--bg);
    --_group-hdr:     color-mix(in srgb, var(--fg) 5%, var(--bg));
    --_inner-stroke:  color-mix(in srgb, var(--fg) 12%, var(--bg));
    --_key-badge:     color-mix(in srgb, var(--fg) 10%, var(--bg));
  }
</style>
<defs>
  <marker id="arrowhead" markerWidth="8" markerHeight="4.8" refX="8" refY="2.4" orient="auto">
    <polygon points="0 0, 8 2.4, 0 4.8" fill="var(--_arrow)" />
  </marker>
  <marker id="arrowhead-start" markerWidth="8" markerHeight="4.8" refX="0" refY="2.4" orient="auto-start-reverse">
    <polygon points="8 0, 0 2.4, 8 4.8" fill="var(--_arrow)" />
  </marker>
</defs>
<rect x="40" y="1456" width="594.6375" height="952" rx="0" ry="0" fill="var(--_group-fill)" stroke="var(--_node-stroke)" stroke-width="1" />
<rect x="40" y="1456" width="594.6375" height="28" rx="0" ry="0" fill="var(--_group-hdr)" stroke="var(--_node-stroke)" stroke-width="1" />
<text x="52" y="1470" dy="0.35em" font-size="12" font-weight="600" fill="var(--_text-sec)">&quot;Data Collection Pipeline&quot;</text>
<rect x="40" y="40" width="2139.6375" height="152" rx="0" ry="0" fill="var(--_group-fill)" stroke="var(--_node-stroke)" stroke-width="1" />
<rect x="40" y="40" width="2139.6375" height="28" rx="0" ry="0" fill="var(--_group-hdr)" stroke="var(--_node-stroke)" stroke-width="1" />
<text x="52" y="54" dy="0.35em" font-size="12" font-weight="600" fill="var(--_text-sec)">&quot;JSON Data Layer&quot;</text>
<rect x="163.34999999999997" y="512" width="954.2499999999999" height="624" rx="0" ry="0" fill="var(--_group-fill)" stroke="var(--_node-stroke)" stroke-width="1" />
<rect x="163.34999999999997" y="512" width="954.2499999999999" height="28" rx="0" ry="0" fill="var(--_group-hdr)" stroke="var(--_node-stroke)" stroke-width="1" />
<text x="175.34999999999997" y="526" dy="0.35em" font-size="12" font-weight="600" fill="var(--_text-sec)">&quot;Severity Model&quot;</text>
<rect x="1157.6" y="296" width="1159.8000000000002" height="820" rx="0" ry="0" fill="var(--_group-fill)" stroke="var(--_node-stroke)" stroke-width="1" />
<rect x="1157.6" y="296" width="1159.8000000000002" height="28" rx="0" ry="0" fill="var(--_group-hdr)" stroke="var(--_node-stroke)" stroke-width="1" />
<text x="1169.6" y="310" dy="0.35em" font-size="12" font-weight="600" fill="var(--_text-sec)">&quot;Next.js Static Site&quot;</text>
<rect x="1137.6" y="276" width="1199.8000000000002" height="1896" rx="0" ry="0" fill="var(--_group-fill)" stroke="var(--_node-stroke)" stroke-width="1" />
<rect x="1137.6" y="276" width="1199.8000000000002" height="28" rx="0" ry="0" fill="var(--_group-hdr)" stroke="var(--_node-stroke)" stroke-width="1" />
<text x="1149.6" y="290" dy="0.35em" font-size="12" font-weight="600" fill="var(--_text-sec)">&quot;AWS Static Hosting&quot;</text>
<polyline points="496.5375,1579 496.5375,1797 511.35,1797" fill="none" stroke="var(--_line)" stroke-width="0.75" marker-end="url(#arrowhead)" />
<polyline points="279.6625,1579 279.6625,1797 264.85,1797" fill="none" stroke="var(--_line)" stroke-width="0.75" marker-end="url(#arrowhead)" />
<polyline points="2143.55,1579 2143.55,1599 1572.225,1599 1572.225,1797 511.35,1797" fill="none" stroke="var(--_line)" stroke-width="0.75" marker-end="url(#arrowhead)" />
<polyline points="388.1,1815 388.1,2055.5" fill="none" stroke="var(--_line)" stroke-width="0.75" marker-end="url(#arrowhead)" />
<polyline points="388.1,2091.5 388.1,2350 457.26249999999993,2350" fill="none" stroke="var(--_line)" stroke-width="0.75" marker-end="url(#arrowhead)" />
<polyline points="312.56249999999994,2332 312.56249999999994,2312 143.35000000000002,2312 143.35000000000002,134 1320.2125,134" fill="none" stroke="var(--_line)" stroke-width="0.75" marker-end="url(#arrowhead)" />
<polyline points="1489.9375,152 1489.9375,172 2146.3999999999996,172 2146.3999999999996,352" fill="none" stroke="var(--_line)" stroke-width="0.75" marker-end="url(#arrowhead)" />
<polyline points="1489.9375,152 1489.9375,172 1480.2749999999999,172 1480.2749999999999,352" fill="none" stroke="var(--_line)" stroke-width="0.75" marker-end="url(#arrowhead)" />
<polyline points="1489.9375,152 1489.9375,172 1811.55,172 1811.55,352" fill="none" stroke="var(--_line)" stroke-width="0.75" marker-end="url(#arrowhead)" />
<polyline points="1480.2749999999999,388 1480.2749999999999,408 1324.3,408 1324.3,606 651.1125,606" fill="none" stroke="var(--_line)" stroke-width="0.75" marker-end="url(#arrowhead)" />
<polyline points="560.0374999999999,588 560.0374999999999,568 1240.9499999999998,568 1240.9499999999998,370 1335.5749999999998,370" fill="none" stroke="var(--_line)" stroke-width="0.75" marker-end="url(#arrowhead)" />
<polyline points="560.0374999999999,624 560.0374999999999,644 857.95,644 857.95,824" fill="none" stroke="var(--_line)" stroke-width="0.75" marker-end="url(#arrowhead)" />
<polyline points="560.0374999999999,624 560.0374999999999,644 390.825,644 390.825,824" fill="none" stroke="var(--_line)" stroke-width="0.75" marker-end="url(#arrowhead)" />
<polyline points="857.95,860 857.95,1078 711.8874999999999,1078" fill="none" stroke="var(--_line)" stroke-width="0.75" marker-end="url(#arrowhead)" />
<polyline points="390.825,860 390.825,1078 408.1874999999999,1078" fill="none" stroke="var(--_line)" stroke-width="0.75" marker-end="url(#arrowhead)" />
<polyline points="2146.3999999999996,388 2146.3999999999996,606 1853,606" fill="none" stroke="var(--_line)" stroke-width="0.75" marker-end="url(#arrowhead)" />
<polyline points="1480.2749999999999,388 1480.2749999999999,408 1688.0875,408 1688.0875,606 1793,606" fill="none" stroke="var(--_line)" stroke-width="0.75" marker-end="url(#arrowhead)" />
<polyline points="1811.55,388 1811.55,408 1655.575,408 1655.575,606 1793,606" fill="none" stroke="var(--_line)" stroke-width="0.75" marker-end="url(#arrowhead)" />
<polyline points="1823,624 1823,824" fill="none" stroke="var(--_line)" stroke-width="0.75" marker-end="url(#arrowhead)" />
<polyline points="1823,624 1823,644 1342.1750000000002,644 1342.1750000000002,824" fill="none" stroke="var(--_line)" stroke-width="0.75" marker-end="url(#arrowhead)" />
<polyline points="1823,624 1823,644 2143.55,644 2143.55,824" fill="none" stroke="var(--_line)" stroke-width="0.75" marker-end="url(#arrowhead)" />
<polyline points="1823,860 1823,1078 1823.5124999999998,1078" fill="none" stroke="var(--_line)" stroke-width="0.75" marker-end="url(#arrowhead)" />
<polyline points="1342.1750000000002,860 1342.1750000000002,1078 1555.5625,1078" fill="none" stroke="var(--_line)" stroke-width="0.75" marker-end="url(#arrowhead)" />
<polyline points="2143.55,860 2143.55,1060" fill="none" stroke="var(--_line)" stroke-width="0.75" marker-end="url(#arrowhead)" />
<polyline points="2143.55,1096 2143.55,1296" fill="none" stroke="var(--_line)" stroke-width="0.75" marker-end="url(#arrowhead)" />
<polyline points="2143.55,1332 2143.55,1532" fill="none" stroke="var(--_line)" stroke-width="0.75" marker-end="url(#arrowhead)" />
<polyline points="2143.55,1579 2143.55,1599 2192.8750000000005,1599 2192.8750000000005,1779" fill="none" stroke="var(--_line)" stroke-width="0.75" marker-end="url(#arrowhead)" />
<polyline points="2192.8750000000005,1815 2192.8750000000005,2015" fill="none" stroke="var(--_line)" stroke-width="0.75" marker-end="url(#arrowhead)" />
<rect x="409.0375" y="1539" width="175" height="33" fill="var(--_node-fill)" stroke="none" />
<line x1="409.0375" y1="1539" x2="409.0375" y2="1572" stroke="var(--_node-stroke)" stroke-width="0.75" />
<line x1="584.0375" y1="1539" x2="584.0375" y2="1572" stroke="var(--_node-stroke)" stroke-width="0.75" />
<ellipse cx="496.5375" cy="1572" rx="87.5" ry="7" fill="var(--_node-fill)" stroke="var(--_node-stroke)" stroke-width="0.75" />
<ellipse cx="496.5375" cy="1539" rx="87.5" ry="7" fill="var(--_node-fill)" stroke="var(--_node-stroke)" stroke-width="0.75" />
<rect x="174.28750000000002" y="1539" width="210.75000000000003" height="33" fill="var(--_node-fill)" stroke="none" />
<line x1="174.28750000000002" y1="1539" x2="174.28750000000002" y2="1572" stroke="var(--_node-stroke)" stroke-width="0.75" />
<line x1="385.0375" y1="1539" x2="385.0375" y2="1572" stroke="var(--_node-stroke)" stroke-width="0.75" />
<ellipse cx="279.6625" cy="1572" rx="105.37500000000001" ry="7" fill="var(--_node-fill)" stroke="var(--_node-stroke)" stroke-width="0.75" />
<ellipse cx="279.6625" cy="1539" rx="105.37500000000001" ry="7" fill="var(--_node-fill)" stroke="var(--_node-stroke)" stroke-width="0.75" />
<rect x="2031.025" y="1539" width="225.05" height="33" fill="var(--_node-fill)" stroke="none" />
<line x1="2031.025" y1="1539" x2="2031.025" y2="1572" stroke="var(--_node-stroke)" stroke-width="0.75" />
<line x1="2256.0750000000003" y1="1539" x2="2256.0750000000003" y2="1572" stroke="var(--_node-stroke)" stroke-width="0.75" />
<ellipse cx="2143.55" cy="1572" rx="112.525" ry="7" fill="var(--_node-fill)" stroke="var(--_node-stroke)" stroke-width="0.75" />
<ellipse cx="2143.55" cy="1539" rx="112.525" ry="7" fill="var(--_node-fill)" stroke="var(--_node-stroke)" stroke-width="0.75" />
<rect x="264.85" y="1779" width="246.50000000000003" height="36" rx="0" ry="0" fill="var(--_node-fill)" stroke="var(--_node-stroke)" stroke-width="0.75" />
<rect x="289.875" y="2055.5" width="196.45000000000002" height="36" rx="0" ry="0" fill="var(--_node-fill)" stroke="var(--_node-stroke)" stroke-width="0.75" />
<rect x="167.86249999999993" y="2332" width="289.40000000000003" height="36" rx="0" ry="0" fill="var(--_node-fill)" stroke="var(--_node-stroke)" stroke-width="0.75" />
<rect x="1320.2125" y="116" width="339.45000000000005" height="36" rx="0" ry="0" fill="var(--_node-fill)" stroke="var(--_node-stroke)" stroke-width="0.75" />
<rect x="1998.1249999999995" y="352" width="296.55" height="36" rx="0" ry="0" fill="var(--_node-fill)" stroke="var(--_node-stroke)" stroke-width="0.75" />
<rect x="1335.5749999999998" y="352" width="289.40000000000003" height="36" rx="0" ry="0" fill="var(--_node-fill)" stroke="var(--_node-stroke)" stroke-width="0.75" />
<rect x="1648.975" y="352" width="325.15000000000003" height="36" rx="0" ry="0" fill="var(--_node-fill)" stroke="var(--_node-stroke)" stroke-width="0.75" />
<rect x="468.9624999999999" y="588" width="182.15" height="36" rx="0" ry="0" fill="var(--_node-fill)" stroke="var(--_node-stroke)" stroke-width="0.75" />
<rect x="620.3000000000001" y="824" width="475.3" height="36" rx="0" ry="0" fill="var(--_node-fill)" stroke="var(--_node-stroke)" stroke-width="0.75" />
<rect x="185.34999999999997" y="824" width="410.95000000000005" height="36" rx="0" ry="0" fill="var(--_node-fill)" stroke="var(--_node-stroke)" stroke-width="0.75" />
<rect x="408.1874999999999" y="1060" width="303.70000000000005" height="36" rx="0" ry="0" fill="var(--_node-fill)" stroke="var(--_node-stroke)" stroke-width="0.75" />
<rect x="1793" y="588" width="60" height="36" rx="0" ry="0" fill="var(--_node-fill)" stroke="var(--_node-stroke)" stroke-width="0.75" />
<rect x="1696.175" y="824" width="253.65" height="36" rx="0" ry="0" fill="var(--_node-fill)" stroke="var(--_node-stroke)" stroke-width="0.75" />
<rect x="1226.0750000000003" y="824" width="232.20000000000002" height="36" rx="0" ry="0" fill="var(--_node-fill)" stroke="var(--_node-stroke)" stroke-width="0.75" />
<rect x="2016.7250000000001" y="824" width="253.65" height="36" rx="0" ry="0" fill="var(--_node-fill)" stroke="var(--_node-stroke)" stroke-width="0.75" />
<rect x="1555.5625" y="1060" width="267.95000000000005" height="36" rx="0" ry="0" fill="var(--_node-fill)" stroke="var(--_node-stroke)" stroke-width="0.75" />
<rect x="1991.7000000000003" y="1060" width="303.70000000000005" height="36" rx="0" ry="0" fill="var(--_node-fill)" stroke="var(--_node-stroke)" stroke-width="0.75" />
<rect x="2023.8750000000002" y="1296" width="239.35000000000002" height="36" rx="0" ry="0" fill="var(--_node-fill)" stroke="var(--_node-stroke)" stroke-width="0.75" />
<rect x="2119.6750000000006" y="1779" width="146.4" height="36" rx="0" ry="0" fill="var(--_node-fill)" stroke="var(--_node-stroke)" stroke-width="0.75" />
<circle cx="2192.8750000000005" cy="2073.5" r="58.5" fill="var(--_node-fill)" stroke="var(--_node-stroke)" stroke-width="0.75" />
<text x="496.5375" y="1555.5" text-anchor="middle" dy="0.35em" font-size="13" font-weight="500" fill="var(--_text)">&quot;The Hindu\nArchive&quot;</text>
<text x="279.6625" y="1555.5" text-anchor="middle" dy="0.35em" font-size="13" font-weight="500" fill="var(--_text)">&quot;Indian Express\nArchive&quot;</text>
<text x="2143.55" y="1555.5" text-anchor="middle" dy="0.35em" font-size="13" font-weight="500" fill="var(--_text)">&quot;Deccan Chronicle\nArchive&quot;</text>
<text x="388.1" y="1797" text-anchor="middle" dy="0.35em" font-size="13" font-weight="500" fill="var(--_text)">&quot;Scraper\n(Crawlee/Scrapling)&quot;</text>
<text x="388.1" y="2073.5" text-anchor="middle" dy="0.35em" font-size="13" font-weight="500" fill="var(--_text)">&quot;Raw Incidents\n(JSON)&quot;</text>
<text x="312.56249999999994" y="2350" text-anchor="middle" dy="0.35em" font-size="13" font-weight="500" fill="var(--_text)">&quot;Entity Resolution\n&amp; Deduplication&quot;</text>
<text x="1489.9375" y="134" text-anchor="middle" dy="0.35em" font-size="13" font-weight="500" fill="var(--_text)">&quot;Source Verification\n&amp; Confidence Scoring&quot;</text>
<text x="2146.3999999999996" y="370" text-anchor="middle" dy="0.35em" font-size="13" font-weight="500" fill="var(--_text)">&quot;governors.json\n(Governor profiles)&quot;</text>
<text x="1480.2749999999999" y="370" text-anchor="middle" dy="0.35em" font-size="13" font-weight="500" fill="var(--_text)">&quot;incidents.json\n(Incident records)&quot;</text>
<text x="1811.55" y="370" text-anchor="middle" dy="0.35em" font-size="13" font-weight="500" fill="var(--_text)">&quot;metadata.json\n(States, Articles, Eras)&quot;</text>
<text x="560.0374999999999" y="606" text-anchor="middle" dy="0.35em" font-size="13" font-weight="500" fill="var(--_text)">&quot;Severity Calculator&quot;</text>
<text x="857.95" y="842" text-anchor="middle" dy="0.35em" font-size="13" font-weight="500" fill="var(--_text)">&quot;Constitutional Severity\n(escalation × 0.6 + duration × 0.4)&quot;</text>
<text x="390.825" y="842" text-anchor="middle" dy="0.35em" font-size="13" font-weight="500" fill="var(--_text)">&quot;Public Salience\n(visibility × 0.5 + recency × 0.5)&quot;</text>
<text x="560.0374999999999" y="1078" text-anchor="middle" dy="0.35em" font-size="13" font-weight="500" fill="var(--_text)">&quot;Unified Score\n(CS × 0.7 + PS × 0.3)&quot;</text>
<text x="1823" y="606" text-anchor="middle" dy="0.35em" font-size="13" font-weight="500" fill="var(--_text)">UI</text>
<text x="1823" y="842" text-anchor="middle" dy="0.35em" font-size="13" font-weight="500" fill="var(--_text)">&quot;Timeline View\n(1947-present)&quot;</text>
<text x="1342.1750000000002" y="842" text-anchor="middle" dy="0.35em" font-size="13" font-weight="500" fill="var(--_text)">&quot;State Matrix\n(Heat tiles)&quot;</text>
<text x="2143.55" y="842" text-anchor="middle" dy="0.35em" font-size="13" font-weight="500" fill="var(--_text)">&quot;Evidence Drawer\n(Drill-down)&quot;</text>
<text x="1689.5375" y="1078" text-anchor="middle" dy="0.35em" font-size="13" font-weight="500" fill="var(--_text)">&quot;Filters\n(Era, State, Governor)&quot;</text>
<text x="2143.55" y="1078" text-anchor="middle" dy="0.35em" font-size="13" font-weight="500" fill="var(--_text)">&quot;Citation Links\n(Articles, SC Cases)&quot;</text>
<text x="2143.55" y="1314" text-anchor="middle" dy="0.35em" font-size="13" font-weight="500" fill="var(--_text)">&quot;next build\n(static export)&quot;</text>
<text x="2192.8750000000005" y="1797" text-anchor="middle" dy="0.35em" font-size="13" font-weight="500" fill="var(--_text)">&quot;CloudFront CDN&quot;</text>
<text x="2192.8750000000005" y="2073.5" text-anchor="middle" dy="0.35em" font-size="13" font-weight="500" fill="var(--_text)">&quot;End User&quot;</text>
</svg>